# Blender 5.1.0
# www.blender.org
mtllib rubiks.mtl
o Cube
v 1.000000 -0.502339 -0.502339
v -1.000000 -0.502339 -0.502339
v 0.925000 0.925000 1.000000
v 1.000000 0.925000 0.925000
v 0.925000 1.000000 0.925000
v 0.978033 0.925000 0.978033
v 0.968301 0.968301 0.968301
v 0.978033 0.978033 0.925000
v 0.925000 0.978033 0.978033
v -0.925000 0.925000 1.000000
v -0.925000 1.000000 0.925000
v -1.000000 0.925000 0.925000
v -0.925000 0.978033 0.978033
v -0.968301 0.968301 0.968301
v -0.978033 0.978033 0.925000
v -0.978033 0.925000 0.978033
v 0.925000 1.000000 -0.496436
v 1.000000 0.925000 -0.502339
v 0.978033 0.978033 -0.500610
v 0.496436 1.000000 -0.925000
v 0.502339 0.925000 -1.000000
v 0.500610 0.978033 -0.978033
v 0.903424 1.000000 -0.632659
v 0.975643 0.925000 -0.656124
v 0.954490 0.978033 -0.649252
v 0.843522 1.000000 -0.750223
v 0.904955 0.925000 -0.794857
v 0.886962 0.978033 -0.781784
v 0.750223 1.000000 -0.843522
v 0.794857 0.925000 -0.904955
v 0.781784 0.978033 -0.886962
v 0.632659 1.000000 -0.903424
v 0.656124 0.925000 -0.975643
v 0.649252 0.978033 -0.954490
v 0.502339 -1.000000 -0.917111
v 0.502339 -0.917111 -1.000000
v 0.502339 -0.975722 -0.975722
v 0.975643 -0.656124 -0.569755
v 0.975643 -0.569755 -0.656124
v 0.983990 -0.603421 -0.603421
v 0.975643 -0.630827 -0.630827
v 0.904955 -0.794857 -0.709051
v 0.904955 -0.709051 -0.794857
v 0.904955 -0.769725 -0.769725
v 0.794857 -0.904955 -0.820352
v 0.794857 -0.820352 -0.904955
v 0.794857 -0.880176 -0.880176
v 0.656124 -0.975643 -0.892151
v 0.656124 -0.892151 -0.975643
v 0.656124 -0.951189 -0.951189
v 0.496436 -0.925000 1.000000
v 0.502339 -1.000000 0.925000
v 0.500610 -0.978033 0.978033
v 0.925000 -0.496436 1.000000
v 1.000000 -0.502339 0.925000
v 0.978033 -0.500610 0.978033
v 0.632659 -0.903424 1.000000
v 0.656124 -0.975643 0.925000
v 0.649252 -0.954490 0.978033
v 0.750223 -0.843522 1.000000
v 0.794857 -0.904955 0.925000
v 0.781784 -0.886962 0.978033
v 0.843522 -0.750223 1.000000
v 0.904955 -0.794857 0.925000
v 0.886962 -0.781784 0.978033
v 0.903424 -0.632659 1.000000
v 0.975643 -0.656124 0.925000
v 0.954490 -0.649252 0.978033
v -0.496436 1.000000 -0.925000
v -0.502339 0.925000 -1.000000
v -0.500610 0.978033 -0.978033
v -0.925000 1.000000 -0.496436
v -1.000000 0.925000 -0.502339
v -0.978033 0.978033 -0.500610
v -0.632659 1.000000 -0.903424
v -0.656124 0.925000 -0.975643
v -0.649252 0.978033 -0.954490
v -0.750223 1.000000 -0.843522
v -0.794857 0.925000 -0.904955
v -0.781784 0.978033 -0.886962
v -0.843522 1.000000 -0.750223
v -0.904955 0.925000 -0.794857
v -0.886962 0.978033 -0.781784
v -0.903424 1.000000 -0.632659
v -0.975643 0.925000 -0.656124
v -0.954490 0.978033 -0.649252
v -0.502339 -0.917111 -1.000000
v -0.502339 -1.000000 -0.917111
v -0.502339 -0.975722 -0.975722
v -0.975643 -0.569755 -0.656124
v -0.975643 -0.656124 -0.569755
v -0.983990 -0.603421 -0.603421
v -0.975643 -0.630827 -0.630827
v -0.904955 -0.794857 -0.709051
v -0.904955 -0.709051 -0.794857
v -0.904955 -0.769725 -0.769725
v -0.794857 -0.904955 -0.820352
v -0.794857 -0.820352 -0.904955
v -0.794857 -0.880175 -0.880175
v -0.656124 -0.975643 -0.892151
v -0.656124 -0.892151 -0.975643
v -0.656124 -0.951189 -0.951189
v -0.925000 -0.496436 1.000000
v -1.000000 -0.502339 0.925000
v -0.978033 -0.500610 0.978033
v -0.496436 -0.925000 1.000000
v -0.502339 -1.000000 0.925000
v -0.500610 -0.978033 0.978033
v -0.903424 -0.632659 1.000000
v -0.975643 -0.656124 0.925000
v -0.954490 -0.649252 0.978033
v -0.843522 -0.750223 1.000000
v -0.904955 -0.794857 0.925000
v -0.886962 -0.781784 0.978033
v -0.750223 -0.843522 1.000000
v -0.794857 -0.904955 0.925000
v -0.781784 -0.886962 0.978033
v -0.632659 -0.903424 1.000000
v -0.656124 -0.975643 0.925000
v -0.649252 -0.954490 0.978033
vn 0.9965 -0.0590 -0.0590
vn -0.9965 -0.0590 -0.0590
vn 0.1794 0.1794 0.9673
vn 0.9673 0.1794 0.1794
vn 0.1794 0.9673 0.1794
vn 0.6965 0.1726 0.6965
vn 0.5774 0.5774 0.5774
vn 0.6965 0.6965 0.1726
vn 0.1726 0.6965 0.6965
vn -0.1794 0.1794 0.9673
vn -0.1794 0.9673 0.1794
vn -0.9673 0.1794 0.1794
vn -0.1726 0.6965 0.6965
vn -0.5774 0.5774 0.5774
vn -0.6965 0.6965 0.1726
vn -0.6965 0.1726 0.6965
vn 0.2032 0.9790 -0.0160
vn 0.9780 0.1938 -0.0770
vn 0.7135 0.6984 -0.0562
vn 0.0160 0.9790 -0.2032
vn 0.0770 0.1938 -0.9780
vn 0.0562 0.6984 -0.7135
vn 0.2010 0.9774 -0.0653
vn 0.9331 0.1936 -0.3032
vn 0.6869 0.6916 -0.2232
vn 0.1710 0.9774 -0.1242
vn 0.7937 0.1936 -0.5767
vn 0.5843 0.6916 -0.4245
vn 0.1242 0.9774 -0.1710
vn 0.5767 0.1936 -0.7937
vn 0.4245 0.6916 -0.5843
vn 0.0653 0.9774 -0.2010
vn 0.3032 0.1936 -0.9331
vn 0.2232 0.6916 -0.6869
vn 0.0922 -0.9751 -0.2015
vn 0.0922 -0.2015 -0.9751
vn 0.1079 -0.7030 -0.7030
vn 0.9504 -0.3088 -0.0357
vn 0.9504 -0.0357 -0.3088
vn 0.9881 -0.1087 -0.1087
vn 0.9569 -0.2053 -0.2053
vn 0.8374 -0.5388 -0.0918
vn 0.8374 -0.0918 -0.5388
vn 0.8735 -0.3443 -0.3443
vn 0.6377 -0.7567 -0.1441
vn 0.6377 -0.1441 -0.7567
vn 0.6918 -0.5106 -0.5106
vn 0.3519 -0.9166 -0.1899
vn 0.3519 -0.1899 -0.9166
vn 0.3943 -0.6498 -0.6498
vn 0.0160 -0.2032 0.9790
vn 0.0770 -0.9780 0.1938
vn 0.0562 -0.7135 0.6984
vn 0.2032 -0.0160 0.9790
vn 0.9780 -0.0770 0.1938
vn 0.7135 -0.0562 0.6984
vn 0.0653 -0.2010 0.9774
vn 0.3032 -0.9331 0.1936
vn 0.2232 -0.6869 0.6916
vn 0.1242 -0.1710 0.9774
vn 0.5767 -0.7937 0.1936
vn 0.4245 -0.5843 0.6916
vn 0.1710 -0.1242 0.9774
vn 0.7937 -0.5767 0.1936
vn 0.5843 -0.4245 0.6916
vn 0.2010 -0.0653 0.9774
vn 0.9331 -0.3032 0.1936
vn 0.6869 -0.2232 0.6916
vn -0.0160 0.9790 -0.2032
vn -0.0770 0.1938 -0.9780
vn -0.0562 0.6984 -0.7135
vn -0.2032 0.9790 -0.0160
vn -0.9780 0.1938 -0.0770
vn -0.7135 0.6984 -0.0562
vn -0.0653 0.9774 -0.2010
vn -0.3032 0.1936 -0.9331
vn -0.2232 0.6916 -0.6869
vn -0.1242 0.9774 -0.1710
vn -0.5767 0.1936 -0.7937
vn -0.4245 0.6916 -0.5843
vn -0.1710 0.9774 -0.1242
vn -0.7937 0.1936 -0.5767
vn -0.5843 0.6916 -0.4245
vn -0.2010 0.9774 -0.0653
vn -0.9331 0.1936 -0.3032
vn -0.6869 0.6916 -0.2232
vn -0.0922 -0.2015 -0.9751
vn -0.0922 -0.9751 -0.2015
vn -0.1079 -0.7030 -0.7030
vn -0.9504 -0.0357 -0.3088
vn -0.9504 -0.3088 -0.0357
vn -0.9881 -0.1087 -0.1087
vn -0.9569 -0.2053 -0.2053
vn -0.8374 -0.5388 -0.0918
vn -0.8374 -0.0918 -0.5388
vn -0.8735 -0.3443 -0.3443
vn -0.6377 -0.7567 -0.1441
vn -0.6377 -0.1441 -0.7567
vn -0.6918 -0.5106 -0.5106
vn -0.3519 -0.9166 -0.1899
vn -0.3519 -0.1899 -0.9166
vn -0.3943 -0.6498 -0.6498
vn -0.2032 -0.0160 0.9790
vn -0.9780 -0.0770 0.1938
vn -0.7135 -0.0562 0.6984
vn -0.0160 -0.2032 0.9790
vn -0.0770 -0.9780 0.1938
vn -0.0562 -0.7135 0.6984
vn -0.2010 -0.0653 0.9774
vn -0.9331 -0.3032 0.1936
vn -0.6869 -0.2232 0.6916
vn -0.1710 -0.1242 0.9774
vn -0.7937 -0.5767 0.1936
vn -0.5843 -0.4245 0.6916
vn -0.1242 -0.1710 0.9774
vn -0.5767 -0.7937 0.1936
vn -0.4245 -0.5843 0.6916
vn -0.0653 -0.2010 0.9774
vn -0.3032 -0.9331 0.1936
vn -0.2232 -0.6869 0.6916
vt 0.615552 0.759302
vt 0.615625 0.750000
vt 0.625000 0.748679
vt 0.629688 0.754688
vt 0.615625 0.740625
vt 0.625000 0.740625
vt 0.634302 0.740552
vt 0.615569 0.990569
vt 0.625000 0.990625
vt 0.625000 0.996038
vt 0.615625 1.000000
vt 0.865569 0.740568
vt 0.875000 0.740625
vt 0.875000 0.746038
vt 0.865625 0.750000
vt 0.615625 0.009375
vt 0.615625 0.000000
vt 0.621038 0.000000
vt 0.625000 0.009375
vt 0.417984 0.553921
vt 0.420495 0.546016
vt 0.424572 0.549572
vt 0.426556 0.542246
vt 0.424572 0.549572
vt 0.428781 0.207016
vt 0.422200 0.204505
vt 0.424572 0.200428
vt 0.421410 0.198445
vt 0.388481 0.292984
vt 0.385361 0.312208
vt 0.375072 0.311750
vt 0.378567 0.291959
vt 0.166959 0.503567
vt 0.186750 0.500072
vt 0.187208 0.510361
vt 0.167984 0.513481
vt 0.383625 0.936304
vt 0.386883 0.953893
vt 0.378109 0.956995
vt 0.374997 0.937771
vt 0.187243 0.750033
vt 0.168005 0.750000
vt 0.167984 0.740625
vt 0.187208 0.740625
vt 0.397456 0.275643
vt 0.387287 0.271795
vt 0.148719 0.512913
vt 0.150643 0.522456
vt 0.394423 0.968641
vt 0.386936 0.974317
vt 0.150550 0.750000
vt 0.150643 0.740625
vt 0.403421 0.224357
vt 0.395042 0.222503
vt 0.125000 0.525643
vt 0.125000 0.536369
vt 0.406092 0.980310
vt 0.400683 0.988064
vt 0.125573 0.750000
vt 0.125000 0.740625
vt 0.417984 0.207016
vt 0.391469 0.213631
vt 0.417984 0.196219
vt 0.420783 0.987793
vt 0.418005 0.996891
vt 0.375960 0.000000
vt 0.417719 0.000000
vt 0.417984 0.009375
vt 0.375723 0.009375
vt 0.437792 0.990472
vt 0.437209 0.999983
vt 0.437209 0.000000
vt 0.437208 0.009375
vt 0.636001 0.545230
vt 0.633748 0.562394
vt 0.625015 0.562209
vt 0.627745 0.543005
vt 0.615625 0.562208
vt 0.618192 0.542984
vt 0.642412 0.529673
vt 0.635439 0.525628
vt 0.625583 0.525643
vt 0.400643 0.536865
vt 0.402033 0.527033
vt 0.417984 0.542984
vt 0.411865 0.525643
vt 0.428921 0.542984
vt 0.652238 0.514911
vt 0.647297 0.507031
vt 0.636273 0.506391
vt 0.368732 0.505516
vt 0.370559 0.495559
vt 0.380516 0.493732
vt 0.662933 0.503657
vt 0.661995 0.496677
vt 0.650482 0.496151
vt 0.355738 0.493009
vt 0.355804 0.480804
vt 0.368009 0.480738
vt 0.670783 0.492123
vt 0.664002 0.476807
vt 0.651962 0.476462
vt 0.344222 0.482161
vt 0.344161 0.469161
vt 0.357161 0.469222
vt 0.828893 0.511883
vt 0.811304 0.508625
vt 0.812771 0.499997
vt 0.831995 0.503109
vt 0.625000 0.293005
vt 0.625033 0.312243
vt 0.615625 0.312208
vt 0.615625 0.292984
vt 0.843641 0.519423
vt 0.849317 0.511936
vt 0.625000 0.275264
vt 0.615625 0.275643
vt 0.855310 0.531092
vt 0.863064 0.525683
vt 0.625000 0.224736
vt 0.615276 0.224357
vt 0.862793 0.545783
vt 0.871891 0.543005
vt 0.625000 0.206995
vt 0.615625 0.207016
vt 0.865472 0.562793
vt 0.874983 0.562209
vt 0.625000 0.187791
vt 0.615625 0.187792
vt 0.378656 0.787933
vt 0.367123 0.795783
vt 0.351807 0.789002
vt 0.371677 0.786995
vt 0.351462 0.776962
vt 0.371151 0.775482
vt 0.389911 0.777238
vt 0.382031 0.772297
vt 0.381391 0.761273
vt 0.404673 0.767412
vt 0.400628 0.760439
vt 0.400643 0.750583
vt 0.420230 0.761001
vt 0.418006 0.752745
vt 0.417985 0.743192
vt 0.437393 0.758748
vt 0.437209 0.750015
vt 0.437208 0.740625
vt 0.437208 0.562208
vt 0.437208 0.187792
s 1
usemtl R
f 5/7/5 9/4/9 7/3/7 8/6/8
f 11/12/11 15/13/15 14/14/14 13/15/13
f 5/7/5 11/12/11 13/15/13 9/4/9
f 23/74/23 17/75/17 19/76/19 25/77/25
f 26/80/26 23/74/23 25/77/25 28/81/28
f 29/88/29 26/80/26 28/81/28 31/89/31
f 32/94/32 29/88/29 31/89/31 34/95/34
f 20/100/20 32/94/32 34/95/34 22/101/22
f 75/106/75 69/107/69 71/108/71 77/109/77
f 78/114/78 75/106/75 77/109/77 80/115/80
f 81/118/81 78/114/78 80/115/80 83/119/83
f 84/122/84 81/118/81 83/119/83 86/123/86
f 72/126/72 84/122/84 86/123/86 74/127/74
f 69/107/69 20/100/20 22/101/22 71/108/71
f 17/75/17 5/7/5 8/6/8 19/76/19
f 74/127/74 15/13/15 11/12/11 72/126/72
f 17/75/17 23/74/23 26/80/26 29/88/29 32/94/32 20/100/20 69/107/69 75/106/75 78/114/78 81/118/81 84/122/84 72/126/72 11/12/11 5/7/5
usemtl G
f 3/1/3 6/2/6 7/3/7 9/4/9
f 10/8/10 13/9/13 14/10/14 16/11/16
f 9/4/9 13/9/13 10/8/10 3/1/3
f 106/37/106 118/38/118 120/39/120 108/40/108
f 118/38/118 115/49/115 117/50/117 120/39/120
f 115/49/115 112/57/112 114/58/114 117/50/117
f 112/57/112 109/64/109 111/65/111 114/58/114
f 109/64/109 103/70/103 105/71/105 111/65/111
f 57/130/57 51/131/51 53/132/53 59/133/59
f 60/136/60 57/130/57 59/133/59 62/137/62
f 63/139/63 60/136/60 62/137/62 65/140/65
f 66/142/66 63/139/63 65/140/65 68/143/68
f 54/145/54 66/142/66 68/143/68 56/146/56
f 3/1/3 54/145/54 56/146/56 6/2/6
f 51/131/51 106/37/106 108/40/108 53/132/53
f 16/11/16 105/71/105 103/70/103 10/8/10
f 51/131/51 57/130/57 60/136/60 63/139/63 66/142/66 54/145/54 3/1/3 10/8/10 103/70/103 109/64/109 112/57/112 115/49/115 118/38/118 106/37/106
usemtl N
f 4/5/4 8/6/8 7/3/7 6/2/6
f 12/16/12 16/17/16 14/18/14 15/19/15
f 38/20/38 41/21/41 40/22/40
f 41/21/41 39/23/39 40/24/40
f 90/25/90 93/26/93 92/27/92
f 93/26/93 91/28/91 92/27/92
f 101/29/101 87/30/87 89/31/89 102/32/102
f 102/33/102 89/34/89 88/35/88 100/36/100
f 108/41/108 120/42/120 119/43/119 107/44/107
f 98/45/98 101/29/101 102/32/102 99/46/99
f 99/47/99 102/33/102 100/36/100 97/48/97
f 120/42/120 117/51/117 116/52/116 119/43/119
f 95/53/95 98/45/98 99/46/99 96/54/96
f 96/55/96 99/47/99 97/48/97 94/56/94
f 117/51/117 114/59/114 113/60/113 116/52/116
f 90/25/90 95/53/95 96/54/96 93/61/93
f 93/61/93 96/54/96 94/62/94 91/63/91
f 114/66/114 111/67/111 110/68/110 113/69/113
f 111/67/111 105/72/105 104/73/104 110/68/110
f 25/77/25 19/76/19 18/78/18 24/79/24
f 28/81/28 25/77/25 24/79/24 27/82/27
f 38/20/38 42/83/42 44/84/44 41/85/41
f 41/85/41 44/84/44 43/86/43 39/87/39
f 31/89/31 28/81/28 27/82/27 30/90/30
f 42/83/42 45/91/45 47/92/47 44/84/44
f 44/84/44 47/92/47 46/93/46 43/86/43
f 34/95/34 31/89/31 30/90/30 33/96/33
f 45/91/45 48/97/48 50/98/50 47/92/47
f 47/92/47 50/98/50 49/99/49 46/93/46
f 22/101/22 34/95/34 33/96/33 21/102/21
f 48/97/48 35/103/35 37/104/37 50/98/50
f 50/98/50 37/104/37 36/105/36 49/99/49
f 77/110/77 71/111/71 70/112/70 76/113/76
f 80/116/80 77/110/77 76/113/76 79/117/79
f 83/120/83 80/116/80 79/117/79 82/121/82
f 86/124/86 83/120/83 82/121/82 85/125/85
f 74/128/74 86/124/86 85/125/85 73/129/73
f 59/133/59 53/132/53 52/134/52 58/135/58
f 62/137/62 59/133/59 58/135/58 61/138/61
f 65/140/65 62/137/62 61/138/61 64/141/64
f 68/143/68 65/140/65 64/141/64 67/144/67
f 56/146/56 68/143/68 67/144/67 55/147/55
f 35/103/35 88/35/88 89/34/89 37/104/37
f 37/104/37 89/31/89 87/30/87 36/105/36
f 71/111/71 22/101/22 21/102/21 70/112/70
f 19/76/19 8/6/8 4/5/4 18/78/18
f 6/2/6 56/146/56 55/147/55 4/5/4
f 73/129/73 12/16/12 15/19/15 74/128/74
f 53/132/53 108/41/108 107/44/107 52/134/52
f 12/16/12 104/73/104 105/72/105 16/17/16
f 1/148/1 18/78/18 4/5/4 55/147/55
f 104/73/104 12/16/12 73/129/73 2/149/2
f 18/78/18 1/148/1 40/22/40 39/87/39 24/79/24
f 33/96/33 49/99/49 36/105/36 21/102/21
f 87/30/87 70/112/70 21/102/21 36/105/36
f 24/79/24 39/87/39 43/86/43 27/82/27
f 27/82/27 43/86/43 46/93/46 30/90/30
f 30/90/30 46/93/46 49/99/49 33/96/33
f 52/134/52 35/103/35 48/97/48 58/135/58
f 88/35/88 35/103/35 52/134/52 107/44/107
f 67/144/67 38/20/38 40/22/40 1/148/1 55/147/55
f 64/141/64 42/83/42 38/20/38 67/144/67
f 61/138/61 45/91/45 42/83/42 64/141/64
f 58/135/58 48/97/48 45/91/45 61/138/61
f 70/112/70 87/30/87 101/29/101 76/113/76
f 85/125/85 90/25/90 92/27/92 2/149/2 73/129/73
f 76/113/76 101/29/101 98/45/98 79/117/79
f 79/117/79 98/45/98 95/53/95 82/121/82
f 82/121/82 95/53/95 90/25/90 85/125/85
f 88/35/88 107/44/107 119/43/119 100/36/100
f 94/62/94 113/69/113 110/68/110 91/63/91
f 92/27/92 91/63/91 110/68/110 104/73/104 2/149/2
f 97/48/97 116/52/116 113/60/113 94/56/94
f 100/36/100 119/43/119 116/52/116 97/48/97
